<?xml version="1.0" encoding="UTF-8"?>
<svg version="1.1" viewBox="0 0 1000 1000" xmlns="http://www.w3.org/2000/svg">
<rect width="1e3" height="1e3" fill="#edbbba"/>
<g transform="matrix(.7 0 0 .7 149.58 282.15)">
<svg width="1e3" height="623" data-background-color="#edbbba" viewBox="0 0 396 247" xmlns="http://www.w3.org/2000/svg" xmlns:xlink="http://www.w3.org/1999/xlink">
<g transform="translate(.24 -.1)">
<svg width="395.52" height="247.2" viewBox="0 0 395.52 247.2">
<svg/>
<svg width="395.52" height="247.2" viewBox="0 0 395.52 247.2">
<mask id="a">
<rect width="395.52" height="247.2" fill="#fff"/>
<g transform="translate(0 86.835)">
<svg width="395.52" height="73.53" viewBox="0 0 395.52 73.52988005499455">
<svg width="395.52" height="73.53" viewBox="0 0 395.52 73.52988005499455">
<svg width="395.52" height="73.53" viewBox="0 0 395.52 73.52988005499455">
<svg width="395.52" height="73.53" viewBox="0 0 395.52 73.52988005499455">
<svg width="395.52" height="73.53" viewBox="0 0 395.52 73.52988005499455">
<svg width="395.52" height="73.53" viewBox="0 0 395.52 73.52988005499455">
<g>
<svg width="395.52" height="73.53" data-palette-color="#374151" viewBox="-1.2400000095367432 -43.599998474121094 309.9499816894531 58.439998626708984">
<path class="wordmark-text-0" d="m14.87 0h-13.11v-2.08l3.71-0.56v-31.54l-3.71-0.56v-2.08h12.03q10.4 0 13.29 5.62 1.07 2.07 1.07 4.99t-0.96 5.17q-0.97 2.24-2.87 3.8-3.93 3.28-11.33 3.28h-2.93v11.32l4.81 0.56v2.08zm-1.66-33.86h-3.15v17.31h3.61q4.86 0 7.42-2.59 2.27-2.34 2.27-6.32 0-4.11-2.17-6.13-2.42-2.27-7.98-2.27zm24.34 9.13v22.14l3.12 0.56v2.03h-10.25v-2.03l3.17-0.56v-17.77l-3.17-0.56v-2.03l7.13-1.78zm-4.09-7.46q-0.41-0.43-0.65-0.96-0.24-0.54-0.24-1.07 0-0.52 0.24-1.05 0.24-0.52 0.63-0.96 0.91-0.98 1.65-0.98 0.75 0 1.27 0.27 0.53 0.27 0.94 0.71 0.91 1 0.91 1.77t-0.26 1.31q-0.26 0.53-0.65 0.97-0.93 0.95-1.69 0.95-0.77 0-1.26-0.26-0.49-0.27-0.89-0.7zm12.26 10.63-3.56-0.56v-2.03h11.79v2.03l-3.47 0.56 4.96 7.03 5.05-7.03-2.51-0.56v-2.03h9.01v2.03l-3.27 0.51-6.79 8.89 7.25 10.13 3.44 0.56v2.03h-11.28v-2.03l3.08-0.56-5.57-7.71-5.54 7.71 2.54 0.56v2.03h-9.28v-2.03l3.52-0.56 7.25-9.59-6.62-9.38zm42.53 15.97 1.39 1.59q-3.88 3.49-7.52 4.37-0.8 0.19-1.59 0.19-5.37 0-8.74-3.39-3.34-3.32-3.34-8.67 0-5.32 3.15-9.11 3.47-4.12 9.01-4.12 3.83 0 6.47 2.76 2.81 2.88 2.81 7.49l-1.15 1.03-15.92 1.15q0.05 4.44 2.88 7.1 2.54 2.34 5.91 2.34t6.64-2.73zm-15.26-9.01 12.55-1.15q-0.17-4.05-3.13-5.56-1.05-0.54-2.68-0.54-1.64 0-2.92 0.81-1.28 0.8-2.11 1.95-1.59 2.17-1.71 4.49zm26.93-26v38.01l3.12 0.56v2.03h-10.25v-2.03l3.17-0.56v-33.62l-3.17-0.61v-1.97l7.13-1.81zm30.17 40.6v-2.08l3.37-0.56-3.86-9.49h-14.65l-3.83 9.49 3.44 0.56v2.08h-10.47v-2.08l3.86-0.56 12.81-31.69-1.02-2.41 3.95-1.66 14.6 35.76 3.93 0.56v2.08h-12.13zm-7.79-30.76-6.2 15.67h12.43l-6.23-15.67zm27.66-9.84v38.01l3.13 0.56v2.03h-10.26v-2.03l3.18-0.56v-33.62l-3.18-0.61v-1.97l7.13-1.81zm26.12 35.01 1.39 1.59q-3.88 3.49-7.52 4.37-0.8 0.19-1.58 0.19-5.35 0-8.65-3.39-3.19-3.3-3.19-8.67t3.19-9.11q3.57-4.12 9.57-4.12 4.01 0 7.08 1.32l-0.58 4.9h-1.54q0-2.46-2.95-3.12-0.93-0.22-2.59-0.22t-3.26 0.77-2.63 2.04q-2.02 2.51-2.02 6.15 0 4.47 2.2 7.15 2.36 2.88 6.09 2.88 3.72 0 6.99-2.73zm19.6-15.97q-3.68 0-7.61 2.59v16.38l3.1 0.56v2.03h-10.26v-2.03l3.18-0.56v-33.62l-3.18-0.61v-1.97l7.16-1.81v19.04q2.44-1.68 4.79-2.43 2.36-0.74 4.02-0.74t2.98 0.46q1.32 0.47 2.24 1.42 1.96 1.98 1.96 5.66v14.6l3.1 0.56v2.03h-10.23v-2.03l3.15-0.56v-14.13q0-4.84-4.4-4.84zm34.3 15.97 1.39 1.59q-3.88 3.49-7.52 4.37-0.8 0.19-1.58 0.19-5.37 0-8.74-3.39-3.35-3.32-3.35-8.67 0-5.32 3.15-9.11 3.47-4.12 9.01-4.12 3.83 0 6.47 2.76 2.81 2.88 2.81 7.49l-1.15 1.03-15.92 1.15q0.05 4.44 2.88 7.1 2.54 2.34 5.91 2.34t6.64-2.73zm-15.26-9.01 12.55-1.15q-0.17-4.05-3.12-5.56-1.05-0.54-2.69-0.54-1.63 0-2.92 0.81-1.28 0.8-2.11 1.95-1.58 2.17-1.71 4.49zm36.04-6.96q-4.28 0-7.94 2.59v16.38l3.1 0.56v2.03h-10.2v-2.03l3.15-0.56v-17.77l-3.15-0.56v-2.03l7.1-1.78v3.17q4.59-3.17 8.64-3.17 5.08 0 6.6 3.22 2.49-1.73 4.85-2.48 2.37-0.74 4.03-0.74 3.71 0 5.53 1.85 1.82 1.86 1.82 5.69v14.6l3.08 0.56v2.03h-10.16v-2.03l3.1-0.56v-14.6q0-2.19-1.29-3.37-1.1-1-2.74-1-4.2 0-7.69 2.52 0.13 1.22 0.13 1.85v14.6l2.8 0.56v2.03h-9.67v-2.03l2.86-0.56v-14.6q0-2.19-1.22-3.37-1.05-1-2.73-1zm30.49 27.59h1.27q0 2.39 2.12 2.39 1.27 0 2.25-1.49 0.24-0.41 0.39-0.83l2.73-6.05q-8.15-19.17-9.1-21.61l-3.35-0.56v-2.03h10.89v2.03l-3.03 0.56 6.79 16.46 7.18-16.58-3.27-0.44v-2.03h9.59v2.03l-3.34 0.56-12.26 27.91q-0.54 1.76-1.69 3.03-2.19 2.46-3.78 2.46-2.34 0-4.71-1.05l1.32-4.76z" stroke="#000" stroke-linejoin="round" stroke-width="5"/>
</svg>
</g>
</svg>
</svg>
</svg>
</svg>
</svg>
</svg>
</g>
</mask>
<g mask="url(#a)">
<path d="m197.19 247.21h-88.025v-13.966l24.91-3.76v-211.77l-24.91-3.76v-13.966h80.774c46.553 0 76.298 12.578 89.234 37.735 4.79 9.266 7.184 20.434 7.184 33.505s-2.149 24.642-6.445 34.713c-4.342 10.027-10.765 18.532-19.271 25.515-17.592 14.682-42.95 22.023-76.074 22.023h-19.673v76.007l32.296 3.76zm-11.146-227.35h-21.15v116.23h24.239c21.755 0 38.362-5.797 49.821-17.391 10.161-10.474 15.242-24.619 15.242-42.434v-1e-3c0-18.397-4.857-32.117-14.571-41.159-10.833-10.161-28.693-15.242-53.581-15.241z" fill="#374151" font-family="none" font-size="none" font-weight="none" stroke-dasharray="" stroke-miterlimit="10" text-anchor="none" style="mix-blend-mode:normal" data-fill-palette-color="tertiary" xmlns="http://www.w3.org/2000/svg"/>
</g>
<g transform="translate(0 86.835)">
<svg width="395.52" height="73.53" viewBox="0 0 395.52 73.52988005499455">
<svg width="395.52" height="73.53" viewBox="0 0 395.52 73.52988005499455">
<svg width="395.52" height="73.53" viewBox="0 0 395.52 73.52988005499455">
<svg width="395.52" height="73.53" viewBox="0 0 395.52 73.52988005499455">
<svg width="395.52" height="73.53" viewBox="0 0 395.52 73.52988005499455">
<svg width="395.52" height="73.53" viewBox="0 0 395.52 73.52988005499455">
<g>
<svg width="395.52" height="73.53" data-palette-color="#374151" viewBox="-1.2400000095367432 -43.599998474121094 309.9499816894531 58.439998626708984">
<path class="wordmark-text-0" d="m14.87 0h-13.11v-2.08l3.71-0.56v-31.54l-3.71-0.56v-2.08h12.03q10.4 0 13.29 5.62 1.07 2.07 1.07 4.99t-0.96 5.17q-0.97 2.24-2.87 3.8-3.93 3.28-11.33 3.28h-2.93v11.32l4.81 0.56v2.08zm-1.66-33.86h-3.15v17.31h3.61q4.86 0 7.42-2.59 2.27-2.34 2.27-6.32 0-4.11-2.17-6.13-2.42-2.27-7.98-2.27zm24.34 9.13v22.14l3.12 0.56v2.03h-10.25v-2.03l3.17-0.56v-17.77l-3.17-0.56v-2.03l7.13-1.78zm-4.09-7.46q-0.41-0.43-0.65-0.96-0.24-0.54-0.24-1.07 0-0.52 0.24-1.05 0.24-0.52 0.63-0.96 0.91-0.98 1.65-0.98 0.75 0 1.27 0.27 0.53 0.27 0.94 0.71 0.91 1 0.91 1.77t-0.26 1.31q-0.26 0.53-0.65 0.97-0.93 0.95-1.69 0.95-0.77 0-1.26-0.26-0.49-0.27-0.89-0.7zm12.26 10.63-3.56-0.56v-2.03h11.79v2.03l-3.47 0.56 4.96 7.03 5.05-7.03-2.51-0.56v-2.03h9.01v2.03l-3.27 0.51-6.79 8.89 7.25 10.13 3.44 0.56v2.03h-11.28v-2.03l3.08-0.56-5.57-7.71-5.54 7.71 2.54 0.56v2.03h-9.28v-2.03l3.52-0.56 7.25-9.59-6.62-9.38zm42.53 15.97 1.39 1.59q-3.88 3.49-7.52 4.37-0.8 0.19-1.59 0.19-5.37 0-8.74-3.39-3.34-3.32-3.34-8.67 0-5.32 3.15-9.11 3.47-4.12 9.01-4.12 3.83 0 6.47 2.76 2.81 2.88 2.81 7.49l-1.15 1.03-15.92 1.15q0.05 4.44 2.88 7.1 2.54 2.34 5.91 2.34t6.64-2.73zm-15.26-9.01 12.55-1.15q-0.17-4.05-3.13-5.56-1.05-0.54-2.68-0.54-1.64 0-2.92 0.81-1.28 0.8-2.11 1.95-1.59 2.17-1.71 4.49zm26.93-26v38.01l3.12 0.56v2.03h-10.25v-2.03l3.17-0.56v-33.62l-3.17-0.61v-1.97l7.13-1.81zm30.17 40.6v-2.08l3.37-0.56-3.86-9.49h-14.65l-3.83 9.49 3.44 0.56v2.08h-10.47v-2.08l3.86-0.56 12.81-31.69-1.02-2.41 3.95-1.66 14.6 35.76 3.93 0.56v2.08h-12.13zm-7.79-30.76-6.2 15.67h12.43l-6.23-15.67zm27.66-9.84v38.01l3.13 0.56v2.03h-10.26v-2.03l3.18-0.56v-33.62l-3.18-0.61v-1.97l7.13-1.81zm26.12 35.01 1.39 1.59q-3.88 3.49-7.52 4.37-0.8 0.19-1.58 0.19-5.35 0-8.65-3.39-3.19-3.3-3.19-8.67t3.19-9.11q3.57-4.12 9.57-4.12 4.01 0 7.08 1.32l-0.58 4.9h-1.54q0-2.46-2.95-3.12-0.93-0.22-2.59-0.22t-3.26 0.77-2.63 2.04q-2.02 2.51-2.02 6.15 0 4.47 2.2 7.15 2.36 2.88 6.09 2.88 3.72 0 6.99-2.73zm19.6-15.97q-3.68 0-7.61 2.59v16.38l3.1 0.56v2.03h-10.26v-2.03l3.18-0.56v-33.62l-3.18-0.61v-1.97l7.16-1.81v19.04q2.44-1.68 4.79-2.43 2.36-0.74 4.02-0.74t2.98 0.46q1.32 0.47 2.24 1.42 1.96 1.98 1.96 5.66v14.6l3.1 0.56v2.03h-10.23v-2.03l3.15-0.56v-14.13q0-4.84-4.4-4.84zm34.3 15.97 1.39 1.59q-3.88 3.49-7.52 4.37-0.8 0.19-1.58 0.19-5.37 0-8.74-3.39-3.35-3.32-3.35-8.67 0-5.32 3.15-9.11 3.47-4.12 9.01-4.12 3.83 0 6.47 2.76 2.81 2.88 2.81 7.49l-1.15 1.03-15.92 1.15q0.05 4.44 2.88 7.1 2.54 2.34 5.91 2.34t6.64-2.73zm-15.26-9.01 12.55-1.15q-0.17-4.05-3.12-5.56-1.05-0.54-2.69-0.54-1.63 0-2.92 0.81-1.28 0.8-2.11 1.95-1.58 2.17-1.71 4.49zm36.04-6.96q-4.28 0-7.94 2.59v16.38l3.1 0.56v2.03h-10.2v-2.03l3.15-0.56v-17.77l-3.15-0.56v-2.03l7.1-1.78v3.17q4.59-3.17 8.64-3.17 5.08 0 6.6 3.22 2.49-1.73 4.85-2.48 2.37-0.74 4.03-0.74 3.71 0 5.53 1.85 1.82 1.86 1.82 5.69v14.6l3.08 0.56v2.03h-10.16v-2.03l3.1-0.56v-14.6q0-2.19-1.29-3.37-1.1-1-2.74-1-4.2 0-7.69 2.52 0.13 1.22 0.13 1.85v14.6l2.8 0.56v2.03h-9.67v-2.03l2.86-0.56v-14.6q0-2.19-1.22-3.37-1.05-1-2.73-1zm30.49 27.59h1.27q0 2.39 2.12 2.39 1.27 0 2.25-1.49 0.24-0.41 0.39-0.83l2.73-6.05q-8.15-19.17-9.1-21.61l-3.35-0.56v-2.03h10.89v2.03l-3.03 0.56 6.79 16.46 7.18-16.58-3.27-0.44v-2.03h9.59v2.03l-3.34 0.56-12.26 27.91q-0.54 1.76-1.69 3.03-2.19 2.46-3.78 2.46-2.34 0-4.71-1.05l1.32-4.76z" fill="#374151" data-fill-palette-color="primary"/>
</svg>
</g>
</svg>
</svg>
</svg>
</svg>
</svg>
</svg>
</g>
</svg>
</svg>
<rect width="395.52" height="247.2" fill="none" visibility="hidden"/>
</g>
</svg>
</g>
</svg>
