<?xml version="1.0" encoding="UTF-8"?>
<svg version="1.1" viewBox="0 0 1500 1000" xmlns="http://www.w3.org/2000/svg">
<rect width="1e3" height="1e3" fill="#fff"/>
<g transform="matrix(.7 0 0 .7 149.58 438.12)">
<svg width="1e3" height="176" data-background-color="#ffffff" viewBox="0 0 396 70" xmlns="http://www.w3.org/2000/svg" xmlns:xlink="http://www.w3.org/1999/xlink">
<g transform="translate(.23977 .15961)">
<svg width="395.52" height="69.681" viewBox="0 0 395.5199999999999 69.68078932927774">
<svg width="395.52" height="69.681" viewBox="0 0 407.4374620913734 71.78034982009653">
<g transform="translate(51.317)">
<svg width="356.12" height="71.78" viewBox="0 0 356.12052 71.78034982009653">
<g stroke="transparent" stroke-width="0">
<path rx="0%" d="m0 71.78v-71.78h356.12v71.78z" fill="#ef86c1" data-fill-palette-color="tertiary"/>
<path rx="0%" d="m3.283 68.497v-65.214h349.55v65.214z" fill="#fff" data-fill-palette-color="quaternary"/>
<path d="m9.85 61.93v-52.08h336.42v52.08z" fill="#ef86c1" data-fill-palette-color="tertiary"/>
</g>
<g transform="translate(19.7 19.7)">
<svg width="316.72" height="32.381" viewBox="0 0 316.72104 32.380869820096535">
<svg width="316.72" height="32.381" viewBox="0 0 316.72104 32.380869820096535">
<g>
<svg width="316.72" height="32.381" data-palette-color="#ffffff" viewBox="3.25 -35.849998474121094 455.760009765625 46.599998474121094">
<path class="wordmark-text-0" d="m6.85-29.2q-1.75 0-2.68-0.88-0.92-0.87-0.92-2.47t0.92-2.45q0.93-0.85 2.68-0.85 1.7 0 2.62 0.85 0.93 0.85 0.93 2.45t-0.93 2.47q-0.92 0.88-2.62 0.88zm-2.7 4.2h5.35v25h-5.35v-25zm19.05 25h-5.35v-25h4.75l0.25 4.2q1.3-2.4 3.47-3.55 2.18-1.15 4.63-1.15 2.7 0 4.97 1.22 2.28 1.23 3.43 3.68 0.8-1.65 2.2-2.75t3.1-1.63q1.7-0.52 3.35-0.52 2.4 0 4.5 1t3.4 3.05 1.3 5.25v16.2h-5.35v-15.35q0-3.05-1.45-4.4t-3.7-1.35q-1.75 0-3.23 0.85-1.47 0.85-2.37 2.52-0.9 1.68-0.9 4.13v13.6h-5.35v-15.35q0-3.05-1.45-4.4t-3.7-1.35q-1.5 0-3 0.8t-2.5 2.5-1 4.5v13.3zm56.55-9.25v-6.8q0-2.5-1.38-3.88-1.37-1.37-3.77-1.37-2.25 0-3.85 1.05t-2.35 3.4l-4.5-1.9q0.95-3.05 3.72-4.9 2.78-1.85 7.18-1.85 3 0 5.3 0.97 2.3 0.98 3.62 2.93 1.33 1.95 1.33 5v11.15q0 1.85 1.85 1.85 0.9 0 1.75-0.25l-0.3 3.7q-1.15 0.55-2.9 0.55-1.6 0-2.88-0.58-1.27-0.57-2-1.75-0.72-1.17-0.72-2.92v-0.35l1.1-0.05q-0.45 1.95-1.85 3.23-1.4 1.27-3.25 1.89-1.85 0.63-3.75 0.63-2.35 0-4.23-0.75-1.87-0.75-2.95-2.28-1.07-1.52-1.07-3.77 0-2.8 1.82-4.6 1.83-1.8 5.18-2.45l9.7-1.9-0.05 3.75-7.05 1.45q-2.1 0.4-3.15 1.15t-1.05 2.2q0 1.4 1.07 2.22 1.08 0.83 2.88 0.83 1.25 0 2.42-0.3 1.18-0.3 2.13-0.98 0.95-0.67 1.47-1.75 0.53-1.07 0.53-2.57zm36.04-21 0.85 4.2q-0.15 0-0.3-0.03-0.15-0.02-0.3-0.02-2.4 0-3.65 1.02-1.25 1.03-1.25 2.98l-2.6-1.2q0-2 0.85-3.58 0.85-1.57 2.43-2.47 1.57-0.9 3.57-0.9 0.1 0 0.2 0t0.2 0zm-15.4 26.35h7.5q3.8 0 5.9 1.67 2.1 1.68 2.1 4.63 0 2.6-1.65 4.48-1.65 1.87-4.47 2.87-2.83 1-6.48 1-6.15 0-9.1-1.9t-2.95-4.75q0-2 1.43-3.5 1.42-1.5 4.82-1.7l-0.3 0.8q-2.1-0.45-3.37-1.63-1.28-1.17-1.28-3.32t1.65-3.65 4.65-1.75l2.8 1.35h-0.6q-2.3 0.2-3.25 1.05t-0.95 1.9q0 1.25 0.93 1.85 0.92 0.6 2.62 0.6zm2.9 10.65q2.75 0 4.53-0.52 1.77-0.53 2.65-1.35 0.87-0.83 0.87-1.83 0-1.15-0.92-1.85-0.93-0.7-3.33-0.7h-8.05q-1.4 0-2.35 0.73-0.95 0.72-0.95 1.97 0 1.65 2 2.6t5.55 0.95zm-0.2-32.25q3.3 0 5.73 1.05 2.42 1.05 3.75 2.95 1.32 1.9 1.32 4.45t-1.32 4.45q-1.33 1.9-3.75 2.95-2.43 1.05-5.73 1.05-5.2 0-7.97-2.33-2.78-2.32-2.78-6.12 0-2.55 1.35-4.45t3.78-2.95q2.42-1.05 5.62-1.05zm0 3.75q-2.3 0-3.82 1.27-1.53 1.28-1.53 3.43t1.53 3.45q1.52 1.3 3.82 1.3 2.35 0 3.88-1.3 1.52-1.3 1.52-3.45t-1.52-3.43q-1.53-1.27-3.88-1.27zm28.7 22.25q-3.75 0-6.6-1.55t-4.42-4.48q-1.58-2.92-1.58-6.97t1.58-6.98q1.57-2.92 4.37-4.47t6.35-1.55q3.65 0 6.2 1.5t3.9 4.1 1.35 5.9q0 0.9-0.05 1.7t-0.15 1.4h-20.1v-4.1h17.75l-2.65 0.8q0-3.4-1.7-5.23-1.7-1.82-4.65-1.82-2.15 0-3.75 1t-2.45 2.97q-0.85 1.98-0.85 4.83 0 2.8 0.9 4.75t2.55 2.95 3.9 1q2.5 0 4.05-0.95t2.45-2.65l4.25 2q-0.9 1.8-2.42 3.12-1.53 1.33-3.63 2.03t-4.6 0.7zm32.05 0q-4.65 0-8.05-2.05t-5.3-5.83q-1.9-3.77-1.9-9.12 0-5.25 1.97-9.05 1.98-3.8 5.6-5.88 3.63-2.07 8.33-2.07 5.15 0 8.32 1.9 3.18 1.9 5.08 5.9l-4.95 2.35q-0.95-2.75-3.13-4.13-2.17-1.37-5.27-1.37t-5.43 1.45q-2.32 1.45-3.62 4.22-1.3 2.78-1.3 6.68 0 3.95 1.15 6.72 1.15 2.78 3.47 4.23 2.33 1.45 5.73 1.45 1.85 0 3.45-0.48 1.6-0.47 2.8-1.4 1.2-0.92 1.87-2.35 0.68-1.42 0.68-3.37v-0.95h-9.6v-4.35h14.35v17h-4l-0.3-6.65 1 0.5q-1.2 3.15-3.98 4.9-2.77 1.75-6.97 1.75zm33.05 0q-3.75 0-6.6-1.55t-4.43-4.48q-1.57-2.92-1.57-6.97t1.57-6.98q1.58-2.92 4.38-4.47t6.35-1.55q3.65 0 6.2 1.5t3.9 4.1 1.35 5.9q0 0.9-0.05 1.7t-0.15 1.4h-20.1v-4.1h17.75l-2.65 0.8q0-3.4-1.7-5.23-1.7-1.82-4.65-1.82-2.15 0-3.75 1t-2.45 2.97q-0.85 1.98-0.85 4.83 0 2.8 0.9 4.75t2.55 2.95 3.9 1q2.5 0 4.05-0.95t2.45-2.65l4.25 2q-0.9 1.8-2.43 3.12-1.52 1.33-3.62 2.03t-4.6 0.7zm23.24-0.5h-5.35v-25h4.75l0.35 6.5-0.7-0.7q0.7-2.15 2.03-3.58 1.32-1.42 3.15-2.07 1.82-0.65 3.87-0.65 2.65 0 4.78 1.02 2.12 1.03 3.37 3.08t1.25 5.2v16.2h-5.35v-14.55q0-3.7-1.52-5.13-1.53-1.42-3.83-1.42-1.65 0-3.2 0.77-1.55 0.78-2.57 2.48-1.03 1.7-1.03 4.55v13.3zm36.6 0.5q-3.75 0-6.6-1.55t-4.42-4.48q-1.58-2.92-1.58-6.97t1.58-6.98q1.57-2.92 4.37-4.47t6.35-1.55q3.65 0 6.2 1.5t3.9 4.1 1.35 5.9q0 0.9-0.05 1.7t-0.15 1.4h-20.1v-4.1h17.75l-2.65 0.8q0-3.4-1.7-5.23-1.7-1.82-4.65-1.82-2.15 0-3.75 1t-2.45 2.97q-0.85 1.98-0.85 4.83 0 2.8 0.9 4.75t2.55 2.95 3.9 1q2.5 0 4.05-0.95t2.45-2.65l4.25 2q-0.9 1.8-2.42 3.12-1.53 1.33-3.63 2.03t-4.6 0.7zm23.25-0.5h-5.35v-25h4.55l0.5 4.5q1-2.45 2.97-3.73 1.98-1.27 4.88-1.27 0.75 0 1.5 0.12 0.75 0.13 1.25 0.38l-0.75 4.7q-0.55-0.2-1.23-0.33-0.67-0.12-1.82-0.12-1.55 0-3.05 0.82-1.5 0.83-2.48 2.48-0.97 1.65-0.97 4.2v13.25zm29.8-9.25v-6.8q0-2.5-1.38-3.88-1.37-1.37-3.77-1.37-2.25 0-3.85 1.05t-2.35 3.4l-4.5-1.9q0.95-3.05 3.72-4.9 2.78-1.85 7.17-1.85 3 0 5.31 0.97 2.3 0.98 3.62 2.93t1.32 5v11.15q0 1.85 1.86 1.85 0.89 0 1.75-0.25l-0.3 3.7q-1.15 0.55-2.9 0.55-1.6 0-2.88-0.58-1.28-0.57-2-1.75-0.72-1.17-0.72-2.92v-0.35l1.1-0.05q-0.45 1.95-1.85 3.23-1.4 1.27-3.25 1.89-1.85 0.63-3.75 0.63-2.35 0-4.23-0.75-1.87-0.75-2.95-2.28-1.07-1.52-1.07-3.77 0-2.8 1.82-4.6 1.83-1.8 5.18-2.45l9.69-1.9-0.04 3.75-7.05 1.45q-2.1 0.4-3.16 1.15-1.04 0.75-1.04 2.2 0 1.4 1.07 2.22 1.08 0.83 2.88 0.83 1.25 0 2.42-0.3t2.13-0.98q0.95-0.67 1.47-1.75 0.53-1.07 0.53-2.57zm15.99-21.6 5.35-1.5v24.85q0 1.85 0.98 2.7 0.97 0.85 2.62 0.85 1.35 0 2.35-0.43 1-0.42 1.85-1.17l1.2 3.9q-1.15 1-2.82 1.57-1.68 0.58-3.73 0.58-2.15 0-3.95-0.7t-2.8-2.28q-1-1.57-1.05-4.12v-24.25zm-4.8 5.85h18.75v4.2h-18.75v-4.2zm26.75-4.2q-1.75 0-2.67-0.88-0.93-0.87-0.93-2.47t0.93-2.45q0.92-0.85 2.67-0.85 1.7 0 2.63 0.85 0.92 0.85 0.92 2.45t-0.92 2.47q-0.93 0.88-2.63 0.88zm-2.7 4.2h5.35v25h-5.35v-25zm24.55-0.5q3.65 0 6.45 1.55t4.37 4.47q1.58 2.93 1.58 6.98t-1.58 6.97q-1.57 2.93-4.37 4.48t-6.45 1.55-6.45-1.55-4.4-4.48q-1.6-2.92-1.6-6.97t1.6-6.98q1.6-2.92 4.4-4.47t6.45-1.55zm0 4.2q-2.25 0-3.83 1.02-1.57 1.03-2.42 2.98t-0.85 4.8q0 2.8 0.85 4.77 0.85 1.98 2.42 3 1.58 1.03 3.83 1.03t3.8-1.03q1.55-1.02 2.4-3 0.85-1.97 0.85-4.77 0-2.85-0.85-4.8t-2.4-2.98q-1.55-1.02-3.8-1.02zm24.49 21.3h-5.35v-25h4.75l0.35 6.5-0.69-0.7q0.69-2.15 2.02-3.58 1.32-1.42 3.15-2.07t3.88-0.65q2.64 0 4.77 1.02 2.12 1.03 3.37 3.08t1.25 5.2v16.2h-5.35v-14.55q0-3.7-1.52-5.13-1.52-1.42-3.82-1.42-1.66 0-3.2 0.77-1.55 0.78-2.58 2.48t-1.03 4.55v13.3zm27.95 0h-5.5l12.45-33h6.4l12.45 33h-5.65l-8.5-23.6-1.5-4.75h-0.15l-1.4 4.65-8.6 23.7zm19-8.65h-17.85v-4.35h17.85v4.35zm12.65-24.35h5.35v33h-5.35v-33z" fill="#fff" data-fill-palette-color="quaternary"/>
</svg>
</g>
</svg>
</svg>
</g>
</svg>
</g>
<g transform="translate(0 13.515)">
<svg width="44.75" height="44.75" viewBox="0 0 44.75036209137342 44.75036209137342">
<svg class="icon-icon-0" width="44.75" height="44.75" enable-background="new 0 0 100 100" data-fill-palette-color="accent" version="1.1" viewBox="0 0 100 100" xml:space="preserve" xmlns="http://www.w3.org/2000/svg" xmlns:xlink="http://www.w3.org/1999/xlink"/>
</svg>
</g>
</svg>
<mask id="b">
<svg width="395.52" height="69.681" viewBox="0 0 395.5199999999999 69.68078932927774">
<svg width="395.52" height="69.681" viewBox="0 0 407.4374620913734 71.78034982009653">
<g transform="translate(51.317)">
<svg width="356.12" height="71.78" viewBox="0 0 356.12052 71.78034982009653">
<g transform="translate(19.7 19.7)">
<svg width="316.72" height="32.381" viewBox="0 0 316.72104 32.380869820096535">
<svg width="316.72" height="32.381" viewBox="0 0 316.72104 32.380869820096535">
<g>
<svg width="316.72" height="32.381" data-palette-color="#ffffff" viewBox="3.25 -35.849998474121094 455.760009765625 46.599998474121094"/>
</g>
</svg>
</svg>
</g>
</svg>
</g>
<g transform="translate(0 13.515)">
<svg width="44.75" height="44.75" viewBox="0 0 44.75036209137342 44.75036209137342">
<svg class="icon-icon-0" width="44.75" height="44.75" enable-background="new 0 0 100 100" data-fill-palette-color="accent" version="1.1" viewBox="0 0 100 100" xml:space="preserve" xmlns="http://www.w3.org/2000/svg" xmlns:xlink="http://www.w3.org/1999/xlink"><path d="m70 92.5h-5l-6.759-6.76-0.019-0.018c-0.451-0.445-1.07-0.722-1.755-0.722h-12.938c-0.675 0-1.285 0.271-1.734 0.705l-6.795 6.795h-5c-1.381 0-2.5 0.988-2.5 2.206v3.088c0 1.218 1.119 2.206 2.5 2.206h40c1.381 0 2.5-0.988 2.5-2.206v-3.088c0-1.218-1.119-2.206-2.5-2.206z" fill="#fff"/><g fill="#fff"><path d="m90 0h-80c-5.523 0-10 4.477-10 10v60c0 5.521 4.477 10 10 10h80c5.523 0 10-4.479 10-10v-60c0-5.523-4.477-10-10-10zm-5.111 73.109c-1.688 0-3.055-1.366-3.055-3.055s1.367-3.056 3.055-3.056 3.055 1.366 3.055 3.056c-1e-3 1.689-1.367 3.055-3.055 3.055zm5.111-13.109h-80v-50h80v50z" fill="#fff"/></g></svg>
</svg>
</g>
</svg>
</svg>
</mask>
<linearGradient id="a" y1=".548" y2=".55">
<stop stop-color="#ff6cab" offset="0"/>
<stop stop-color="#7366ff" offset="1"/>
</linearGradient>
<rect width="395.52" height="69.681" fill="url(#a)" mask="url(#b)" data-fill-palette-color="accent"/>
</svg>
<rect width="395.52" height="69.681" fill="none" visibility="hidden"/>
</g>
</svg>
</g>
</svg>
